<?xml version="1.0" encoding="utf-8" ?>	<!-- Generator: Assembly 2.4 - http://assemblyapp.co -->	<svg version="1.1" xmlns="http://www.w3.org/2000/svg" xmlns:xlink="http://www.w3.org/1999/xlink" width="4096.00" height="4096.00" viewBox="0 0 4096.0 4096.0">		<g id="document" transform="scale(13.653333333333334 13.653333333333334) translate(150.0 150.0)">			<path d="M47.0501,-63.9254 L47.0501,-63.9254 C30.9602,-57.6669 21.0757,-36.1113 27.1902,-19.7499 L27.1902,-19.7499 C30.8282,-8.35509 33.2356,3.37702 34.4705,15.2293 C15.0143,37.4507 -18.1408,52.7034 -47.6668,54.959 L-47.6668,54.959 L-47.6668,58.4037 L37.5589,58.4037 C38.9482,42.1041 39.0567,29.1104 37.812,16.2446 L37.812,16.2446 C56.7879,-5.92371 68.3368,-35.3085 67.3563,-65.0694 L67.3563,-65.0694 C67.303,-65.0611 67.3297,-65.0653 67.3563,-65.0694 L67.3563,-68.2978 C60.5064,-67.2549 53.7195,-65.7974 47.0501,-63.9254 Z M48.0891,-60.9025 C53.361,-62.376 58.7076,-63.5856 64.101,-64.5314 L64.101,-64.5314 C65.0203,-36.6266 54.6439,-9.40252 37.3325,11.8415 C36.0088,0.915861 33.6984,-9.89506 30.3575,-20.4268 L30.3575,-20.4268 C24.8506,-35.1621 33.6355,-55.2806 48.0891,-60.9025 L48.0891,-60.9025 Z M34.8696,19.5644 C35.8116,31.3409 35.608,43.2097 34.3152,54.959 L-22.6797,54.959 L-22.6797,54.959 C-0.63884,49.1612 19.3536,36.4725 34.8696,19.5644 L34.8696,19.5644 Z " fill="#000000" fill-opacity="1.00" stroke-width="3.28" stroke="#000000" stroke-linecap="round" stroke-linejoin="round" />		</g>	</svg>