<?xml version="1.0" encoding="utf-8" ?>	<!-- Generator: Assembly 2.4 - http://assemblyapp.co -->	<svg version="1.1" xmlns="http://www.w3.org/2000/svg" xmlns:xlink="http://www.w3.org/1999/xlink" width="4096.00" height="4096.00" viewBox="0 0 4096.0 4096.0">		<g id="document" transform="scale(13.653333333333334 13.653333333333334) translate(150.0 150.0)">			<g>				<path d="M66.2507,49.2044 L66.2507,49.2044 C52.6757,45.3599 35.6121,54.5474 31.54,68.2285 L31.54,68.2285 C28.2994,77.451 24.0902,86.2874 19.0572,94.6245 C-4.57599,99.5312 -33.7096,93.1458 -54.0745,80.0726 L-54.0745,80.0726 L-55.7713,82.3189 L-0.195792,124.3 C8.7391,114.355 15.2103,105.935 20.7361,96.9326 L20.7361,96.9326 C44.03,91.8238 66.0355,78.3509 80.0559,58.4609 L80.0559,58.4609 C80.017,58.44 80.0365,58.4505 80.0559,58.4609 L81.6462,56.3557 C76.6656,53.6616 71.5219,51.2689 66.2507,49.2044 Z " fill="#000000" fill-opacity="1.00" stroke-width="3.28" stroke="#000000" stroke-linecap="round" stroke-linejoin="round" />				<path d="M-49.1776,66.4434 L-49.1776,66.4434 C-45.333,52.8684 -54.5205,35.8047 -68.2016,31.7327 L-68.2016,31.7327 C-77.4242,28.4921 -86.2605,24.2829 -94.5977,19.2499 C-99.5044,-4.38331 -93.119,-33.517 -80.0458,-53.8818 L-80.0458,-53.8818 L-82.2921,-55.5786 L-124.273,-0.00311949 C-114.328,8.93178 -105.909,15.403 -96.9057,20.9288 L-96.9057,20.9288 C-91.797,44.2227 -78.3241,66.2282 -58.4341,80.2486 L-58.4341,80.2486 C-58.4132,80.2097 -58.4236,80.2291 -58.4341,80.2486 L-56.3288,81.8388 C-53.6348,76.8583 -51.2421,71.7146 -49.1776,66.4434 Z " fill="#000000" fill-opacity="1.00" stroke-width="3.28" stroke="#000000" stroke-linecap="round" stroke-linejoin="round" />				<path d="M-66.2507,-49.2044 L-66.2507,-49.2044 C-52.6757,-45.3599 -35.6121,-54.5474 -31.54,-68.2285 L-31.54,-68.2285 C-28.2994,-77.451 -24.0902,-86.2874 -19.0572,-94.6245 C4.57599,-99.5312 33.7096,-93.1458 54.0745,-80.0726 L54.0745,-80.0726 L55.7713,-82.3189 L0.195792,-124.3 C-8.7391,-114.355 -15.2103,-105.935 -20.7361,-96.9326 L-20.7361,-96.9326 C-44.03,-91.8238 -66.0355,-78.3509 -80.0559,-58.4609 L-80.0559,-58.4609 C-80.017,-58.44 -80.0365,-58.4505 -80.0559,-58.4609 L-81.6462,-56.3557 C-76.6656,-53.6616 -71.5219,-51.2689 -66.2507,-49.2044 Z " fill="#000000" fill-opacity="1.00" stroke-width="3.28" stroke="#000000" stroke-linecap="round" stroke-linejoin="round" />				<path d="M49.1776,-66.4434 L49.1776,-66.4434 C45.333,-52.8684 54.5205,-35.8047 68.2016,-31.7327 L68.2016,-31.7327 C77.4242,-28.4921 86.2605,-24.2829 94.5977,-19.2499 C99.5044,4.38331 93.119,33.517 80.0458,53.8818 L80.0458,53.8818 L82.2921,55.5786 L124.273,0.00311949 C114.328,-8.93178 105.909,-15.403 96.9057,-20.9288 L96.9057,-20.9288 C91.797,-44.2227 78.3241,-66.2282 58.4341,-80.2486 L58.4341,-80.2486 C58.4132,-80.2097 58.4236,-80.2291 58.4341,-80.2486 L56.3288,-81.8388 C53.6348,-76.8583 51.2421,-71.7146 49.1776,-66.4434 Z " fill="#000000" fill-opacity="1.00" stroke-width="3.28" stroke="#000000" stroke-linecap="round" stroke-linejoin="round" />			</g>		</g>	</svg>