<?xml version="1.0" encoding="utf-8" ?>	<!-- Generator: Assembly 2.4 - http://assemblyapp.co -->	<svg version="1.1" xmlns="http://www.w3.org/2000/svg" xmlns:xlink="http://www.w3.org/1999/xlink" width="4096.00" height="4096.00" viewBox="0 0 4096.0 4096.0">		<g id="document" transform="scale(13.653333333333334 13.653333333333334) translate(150.0 150.0)">			<path d="M-24.9459,97.2613 L-24.9459,97.2613 C-37.5236,92.3691 -45.2504,75.5188 -40.4706,62.729 L-40.4706,62.729 C-37.6268,53.8216 -35.7448,44.6505 -34.7795,35.3854 C-49.9886,18.0148 -75.9062,6.0916 -98.9869,4.32842 L-98.9869,4.32842 L-98.9869,1.63564 L-32.3653,1.63564 C-31.2792,14.3772 -31.1944,24.5344 -32.1674,34.5918 L-32.1674,34.5918 C-17.3338,51.9209 -8.30593,74.8913 -9.07237,98.1556 L-9.07237,98.1556 C-9.11407,98.1492 -9.09322,98.1524 -9.07237,98.1556 L-9.07237,100.679 C-14.427,99.864 -19.7324,98.7247 -24.9459,97.2613 Z M-24.1337,94.8984 C-20.0127,96.0501 -15.8332,96.9957 -11.6171,97.7351 L-11.6171,97.7351 C-10.8985,75.9216 -19.0098,54.6403 -32.5423,38.0337 C-33.577,46.5744 -35.3831,55.0254 -37.9947,63.2582 L-37.9947,63.2582 C-42.2995,74.7769 -35.4322,90.5036 -24.1337,94.8984 L-24.1337,94.8984 Z M-34.4676,31.9967 C-33.7312,22.7908 -33.8903,13.513 -34.9009,4.32842 L-79.4543,4.32842 L-79.4543,4.32842 C-62.2248,8.86063 -46.5965,18.7794 -34.4676,31.9967 L-34.4676,31.9967 Z " fill="#000000" fill-opacity="1.00" stroke-width="3.28" stroke="#000000" stroke-linecap="round" stroke-linejoin="round" />			<path d="M-83.1191,5.05941 L-83.1191,5.05941 C-70.5415,9.95166 -62.8147,26.8019 -67.5945,39.5917 L-67.5945,39.5917 C-70.4383,48.4992 -72.3202,57.6702 -73.2856,66.9353 C-58.0765,84.306 -32.1588,96.2291 -9.07816,97.9923 L-9.07816,97.9923 L-9.07816,100.685 L-75.6998,100.685 C-76.7858,87.9435 -76.8707,77.7863 -75.8977,67.729 L-75.8977,67.729 C-90.7312,50.3998 -99.7591,27.4295 -98.9927,4.16508 L-98.9927,4.16508 C-98.951,4.17156 -98.9718,4.16831 -98.9927,4.16508 L-98.9927,1.6414 C-93.638,2.45668 -88.3327,3.59603 -83.1191,5.05941 Z M-83.9314,7.42237 C-88.0524,6.27059 -92.2319,5.32501 -96.4479,4.58565 L-96.4479,4.58565 C-97.1666,26.3991 -89.0553,47.6804 -75.5228,64.287 C-74.4881,55.7463 -72.682,47.2953 -70.0704,39.0626 L-70.0704,39.0626 C-65.7656,27.5439 -72.6328,11.8171 -83.9314,7.42237 L-83.9314,7.42237 Z M-73.5975,70.3241 C-74.3339,79.5299 -74.1747,88.8078 -73.1642,97.9923 L-28.6108,97.9923 L-28.6108,97.9923 C-45.8403,93.4601 -61.4686,83.5413 -73.5975,70.3241 L-73.5975,70.3241 Z " fill="#000000" fill-opacity="1.00" stroke-width="3.28" stroke="#000000" stroke-linecap="round" stroke-linejoin="round" />			<path d="M89.8242,26.6441 L89.8242,26.6441 C84.932,39.2217 68.0817,46.9485 55.2919,42.1687 L55.2919,42.1687 C46.3845,39.3249 37.2134,37.443 27.9483,36.4777 C10.5777,51.6868 -1.34551,77.6044 -3.10868,100.685 L-3.10868,100.685 L-5.80146,100.685 L-5.80146,34.0634 C6.94011,32.9774 17.0973,32.8926 27.1546,33.8656 L27.1546,33.8656 C44.4838,19.032 67.4542,10.0041 90.7185,10.7705 L90.7185,10.7705 C90.712,10.8122 90.7153,10.7914 90.7185,10.7705 L93.2422,10.7705 C92.4269,16.1252 91.2876,21.4306 89.8242,26.6441 Z M87.4612,25.8319 C88.613,21.7108 89.5586,17.5313 90.298,13.3153 L90.298,13.3153 C68.4845,12.5967 47.2032,20.7079 30.5966,34.2405 C39.1373,35.2752 47.5883,37.0812 55.821,39.6929 L55.821,39.6929 C67.3398,43.9976 83.0665,37.1304 87.4612,25.8319 L87.4612,25.8319 Z M24.5596,36.1657 C15.3537,35.4294 6.07587,35.5885 -3.10868,36.5991 L-3.10868,81.1525 L-3.10868,81.1525 C1.42352,63.923 11.3423,48.2947 24.5596,36.1657 L24.5596,36.1657 Z " fill="#000000" fill-opacity="1.00" stroke-width="3.28" stroke="#000000" stroke-linecap="round" stroke-linejoin="round" />			<path d="M-2.3777,84.8173 L-2.3777,84.8173 C2.51456,72.2397 19.3648,64.5129 32.1546,69.2927 L32.1546,69.2927 C41.0621,72.1365 50.2331,74.0184 59.4982,74.9837 C76.8688,59.7747 88.792,33.857 90.5552,10.7763 L90.5552,10.7763 L93.248,10.7763 L93.248,77.398 C80.5064,78.484 70.3492,78.5688 60.2919,77.5958 L60.2919,77.5958 C42.9627,92.4294 19.9924,101.457 -3.27203,100.691 L-3.27203,100.691 C-3.26554,100.649 -3.26879,100.67 -3.27203,100.691 L-5.79571,100.691 C-4.98043,95.3362 -3.84108,90.0308 -2.3777,84.8173 Z M-0.0147379,85.6295 C-1.16652,89.7506 -2.1121,93.9301 -2.85145,98.1461 L-2.85145,98.1461 C18.962,98.8647 40.2433,90.7535 56.8499,77.221 C48.3092,76.1862 39.8582,74.3802 31.6255,71.7686 L31.6255,71.7686 C20.1068,67.4638 4.37997,74.331 -0.0147379,85.6295 L-0.0147379,85.6295 Z M62.8869,75.2957 C72.0928,76.0321 81.3706,75.8729 90.5552,74.8623 L90.5552,30.309 L90.5552,30.309 C86.023,47.5385 76.1042,63.1667 62.8869,75.2957 L62.8869,75.2957 Z " fill="#000000" fill-opacity="1.00" stroke-width="3.28" stroke="#000000" stroke-linecap="round" stroke-linejoin="round" />			<path d="M-95.6199,-17.565 L-95.6199,-17.565 C-90.7277,-30.1427 -73.8774,-37.8695 -61.0876,-33.0897 L-61.0876,-33.0897 C-52.1802,-30.2459 -43.0091,-28.3639 -33.744,-27.3986 C-16.3734,-42.6077 -4.4502,-68.5253 -2.68702,-91.606 L-2.68702,-91.606 L0.00575574,-91.606 L0.00575574,-24.9844 C-12.7358,-23.8983 -22.893,-23.8135 -32.9504,-24.7865 L-32.9504,-24.7865 C-50.2795,-9.95294 -73.2499,-0.925031 -96.5142,-1.69146 L-96.5142,-1.69146 C-96.5078,-1.73316 -96.511,-1.71232 -96.5142,-1.69146 L-99.0379,-1.69146 C-98.2226,-7.04611 -97.0833,-12.3515 -95.6199,-17.565 Z M-93.257,-16.7528 C-94.4087,-12.6318 -95.3543,-8.45226 -96.0937,-4.23622 L-96.0937,-4.23622 C-74.2802,-3.51759 -52.9989,-11.6289 -36.3923,-25.1614 C-44.933,-26.1961 -53.384,-28.0021 -61.6168,-30.6138 L-61.6168,-30.6138 C-73.1355,-34.9186 -88.8622,-28.0513 -93.257,-16.7528 L-93.257,-16.7528 Z M-30.3553,-27.0867 C-21.1494,-26.3503 -11.8716,-26.5094 -2.68702,-27.52 L-2.68702,-72.0734 L-2.68702,-72.0734 C-7.21923,-54.8439 -17.138,-39.2156 -30.3553,-27.0867 L-30.3553,-27.0867 Z " fill="#000000" fill-opacity="1.00" stroke-width="3.28" stroke="#000000" stroke-linecap="round" stroke-linejoin="round" />			<path d="M-3.41801,-75.7382 L-3.41801,-75.7382 C-8.31027,-63.1606 -25.1605,-55.4338 -37.9503,-60.2136 L-37.9503,-60.2136 C-46.8578,-63.0574 -56.0288,-64.9393 -65.2939,-65.9047 C-82.6646,-50.6956 -94.5877,-24.7779 -96.3509,-1.69726 L-96.3509,-1.69726 L-99.0437,-1.69726 L-99.0437,-68.3189 C-86.3021,-69.4049 -76.1449,-69.4898 -66.0876,-68.5168 L-66.0876,-68.5168 C-48.7584,-83.3503 -25.7881,-92.3782 -2.52368,-91.6118 L-2.52368,-91.6118 C-2.53016,-91.5701 -2.52692,-91.5909 -2.52368,-91.6118 L0,-91.6118 C-0.815277,-86.2571 -1.95463,-80.9518 -3.41801,-75.7382 Z M-5.78097,-76.5505 C-4.62919,-80.6715 -3.68361,-84.851 -2.94425,-89.067 L-2.94425,-89.067 C-24.7577,-89.7857 -46.039,-81.6744 -62.6456,-68.1419 C-54.1049,-67.1072 -45.654,-65.3011 -37.4212,-62.6895 L-37.4212,-62.6895 C-25.9025,-58.3847 -10.1757,-65.2519 -5.78097,-76.5505 L-5.78097,-76.5505 Z M-68.6827,-66.2166 C-77.8885,-66.953 -87.1664,-66.7938 -96.3509,-65.7833 L-96.3509,-21.2299 L-96.3509,-21.2299 C-91.8187,-38.4594 -81.8999,-54.0877 -68.6827,-66.2166 L-68.6827,-66.2166 Z " fill="#000000" fill-opacity="1.00" stroke-width="3.28" stroke="#000000" stroke-linecap="round" stroke-linejoin="round" />			<path d="M19.207,-88.239 L19.207,-88.239 C31.7846,-83.3468 39.5114,-66.4965 34.7316,-53.7067 L34.7316,-53.7067 C31.8878,-44.7993 30.0059,-35.6282 29.0406,-26.3631 C44.2497,-8.99247 70.1673,2.9307 93.248,4.69388 L93.248,4.69388 L93.248,7.38666 L26.6263,7.38666 C25.5403,-5.35492 25.4555,-15.5121 26.4285,-25.5695 L26.4285,-25.5695 C11.5949,-42.8986 2.567,-65.869 3.33343,-89.1333 L3.33343,-89.1333 C3.37513,-89.1268 3.35428,-89.1301 3.33343,-89.1333 L3.33343,-91.657 C8.68808,-90.8417 13.9935,-89.7024 19.207,-88.239 Z M18.3948,-85.876 C14.2737,-87.0278 10.0942,-87.9734 5.87819,-88.7128 L5.87819,-88.7128 C5.15955,-66.8993 13.2708,-45.618 26.8034,-29.0114 C27.8381,-37.5521 29.6441,-46.0031 32.2557,-54.2359 L32.2557,-54.2359 C36.5605,-65.7546 29.6933,-81.4813 18.3948,-85.876 L18.3948,-85.876 Z M28.7286,-22.9744 C27.9923,-13.7685 28.1514,-4.49067 29.162,4.69388 L73.7154,4.69388 L73.7154,4.69388 C56.4858,0.161676 40.8576,-9.75712 28.7286,-22.9744 L28.7286,-22.9744 Z " fill="#000000" fill-opacity="1.00" stroke-width="3.28" stroke="#000000" stroke-linecap="round" stroke-linejoin="round" />			<path d="M77.3802,3.96289 L77.3802,3.96289 C64.8025,-0.929363 57.0758,-17.7796 61.8556,-30.5694 L61.8556,-30.5694 C64.6994,-39.4769 66.5813,-48.6479 67.5466,-57.913 C52.3376,-75.2837 26.4199,-87.2068 3.33922,-88.97 L3.33922,-88.97 L3.33922,-91.6628 L69.9609,-91.6628 C71.0469,-78.9212 71.1317,-68.764 70.1587,-58.7067 L70.1587,-58.7067 C84.9923,-41.3775 94.0202,-18.4072 93.2538,4.85722 L93.2538,4.85722 C93.2121,4.85074 93.2329,4.85399 93.2538,4.85722 L93.2538,7.3809 C87.8991,6.56563 82.5937,5.42627 77.3802,3.96289 Z M78.1924,1.59993 C82.3135,2.75171 86.493,3.69729 90.709,4.43665 L90.709,4.43665 C91.4276,-17.3768 83.3164,-38.6581 69.7838,-55.2647 C68.7491,-46.724 66.9431,-38.273 64.3315,-30.0403 L64.3315,-30.0403 C60.0267,-18.5216 66.8939,-2.79477 78.1924,1.59993 L78.1924,1.59993 Z M67.8586,-61.3018 C68.595,-70.5076 68.4358,-79.7855 67.4252,-88.97 L22.8719,-88.97 L22.8719,-88.97 C40.1014,-84.4378 55.7296,-74.519 67.8586,-61.3018 L67.8586,-61.3018 Z " fill="#000000" fill-opacity="1.00" stroke-width="3.28" stroke="#000000" stroke-linecap="round" stroke-linejoin="round" />		</g>	</svg>