<?xml version="1.0" encoding="utf-8" ?>	<!-- Generator: Assembly 2.4 - http://assemblyapp.co -->	<svg version="1.1" xmlns="http://www.w3.org/2000/svg" xmlns:xlink="http://www.w3.org/1999/xlink" width="4096.00" height="4096.00" viewBox="0 0 4096.0 4096.0">		<g id="document" transform="scale(13.653333333333334 13.653333333333334) translate(150.0 150.0)">			<path d="M37.2054,-58.9629 L37.2012,-58.9736 L35.7143,-58.3952 C19.6243,-52.1368 10.8521,-32.1779 16.9666,-15.8165 L17.3455,-14.8029 C20.9834,-3.40803 23.3908,8.32408 24.6257,20.1764 C5.16952,42.3978 -22.0639,57.6505 -51.5899,59.906 L-55.7892,59.906 L-57.5116,59.906 L-57.5116,63.3508 L-55.7892,63.3508 L25.9918,63.3508 L27.7141,63.3508 L27.7141,59.906 L27.7127,59.906 C29.1034,47.0511 29.212,34.0575 27.9673,21.1917 L27.9673,21.1917 C46.9431,-0.976645 58.4339,-29.6841 57.4535,-59.445 L57.4316,-60.1099 L57.4316,-60.1099 C57.4582,-60.1141 57.4849,-60.1182 57.5116,-60.1224 L57.5116,-63.3508 C50.6616,-62.3078 43.8748,-60.8503 37.2054,-58.9783 L37.2054,-58.9629 L37.2054,-58.9629 Z M38.2444,-55.9555 C43.5162,-57.4289 48.8628,-58.6385 54.2562,-59.5843 L54.2642,-59.3399 C55.1836,-31.4351 44.7991,-4.45546 27.4877,16.7885 C26.164,5.86292 23.8536,-4.948 20.5127,-15.4798 L20.499,-15.4798 L19.9557,-16.9336 C14.4488,-31.6689 22.4174,-49.7994 36.871,-55.4213 L38.2444,-55.9555 L38.2444,-55.9555 Z M25.0248,24.5115 C25.9668,36.288 25.7632,48.1567 24.4704,59.906 L-32.5245,59.906 L-32.5245,59.906 C-10.4836,54.1082 9.50884,41.4196 25.0248,24.5115 L25.0248,24.5115 Z " fill="#000000" fill-opacity="1.00" />		</g>	</svg>