<?xml version="1.0" encoding="utf-8" ?>	<!-- Generator: Assembly 2.4 - http://assemblyapp.co -->	<svg version="1.1" xmlns="http://www.w3.org/2000/svg" xmlns:xlink="http://www.w3.org/1999/xlink" width="4096.00" height="4096.00" viewBox="0 0 4096.0 4096.0">		<g id="document" transform="scale(13.653333333333334 13.653333333333334) translate(150.0 150.0)">			<path d="M51.6016,-58.9781 L51.6016,-58.9781 C35.5116,-52.7197 25.6271,-31.164 31.7417,-14.8027 L31.7417,-14.8027 C35.3796,-3.40786 37.7871,8.32425 39.0219,20.1766 C19.5658,42.398 -13.5894,57.6507 -43.1153,59.9062 L-43.1153,59.9062 L-43.1153,63.351 L42.1104,63.3509 C43.4997,47.0513 43.6082,34.0577 42.3635,21.1919 L42.3635,21.1919 C61.3393,-0.976478 72.8883,-30.3613 71.9078,-60.1222 L71.9078,-60.1222 C71.8544,-60.1139 71.8811,-60.1181 71.9078,-60.1222 L71.9078,-63.3506 C65.0579,-62.3077 58.271,-60.8502 51.6016,-58.9781 Z " fill="#000000" fill-opacity="1.00" stroke-width="3.28" stroke="#000000" stroke-linecap="round" stroke-linejoin="round" />		</g>	</svg>