<?xml version="1.0" encoding="utf-8" ?>	<!-- Generator: Assembly 2.4 - http://assemblyapp.co -->	<svg version="1.1" xmlns="http://www.w3.org/2000/svg" xmlns:xlink="http://www.w3.org/1999/xlink" width="4096.00" height="4096.00" viewBox="0 0 4096.0 4096.0">		<g id="document" transform="scale(13.653333333333334 13.653333333333334) translate(150.0 150.0)">			<path d="M37.2261,-57.6418 L37.2261,-57.6418 C21.1287,-51.3806 11.2397,-29.8151 17.3571,-13.4462 L17.3571,-13.4462 C20.9967,-2.0462 23.4052,9.69128 24.6406,21.549 C5.17555,43.7805 -27.9947,59.0402 -57.5342,61.2968 L-57.5342,61.2968 L-57.5342,64.7431 L27.7305,64.7431 C29.1204,48.436 29.229,35.4365 27.9837,22.5648 L27.9837,22.5648 C46.9682,0.38631 58.5224,-29.0119 57.5416,-58.7864 L57.5416,-58.7864 C57.4882,-58.7781 57.5149,-58.7823 57.5416,-58.7864 L57.5416,-62.0163 C50.6885,-60.9729 43.8985,-59.5147 37.2261,-57.6418 Z M38.2655,-54.6176 C43.5398,-56.0917 48.8889,-57.3019 54.2847,-58.2482 L54.2847,-58.2482 C55.2044,-30.3306 44.8233,-3.09409 27.5039,18.1596 C26.1797,7.22899 23.8682,-3.58687 20.5258,-14.1235 L20.5258,-14.1235 C15.0164,-28.8655 23.8053,-48.9932 38.2655,-54.6176 L38.2655,-54.6176 Z " fill="#000000" fill-opacity="1.00" stroke-width="3.28" stroke="#000000" stroke-linecap="round" stroke-linejoin="round" />			<path d="M-37.2261,60.3612 L-37.2261,60.3612 C-21.1287,54.1 -11.2397,32.5344 -17.3571,16.1656 L-17.3571,16.1656 C-20.9967,4.76559 -23.4052,-6.97189 -24.6407,-18.8296 C-5.1756,-41.0612 27.9947,-56.3208 57.5341,-58.5774 L57.5341,-58.5774 L57.5341,-62.0237 L-27.7305,-62.0237 C-29.1204,-45.7166 -29.229,-32.7171 -27.9837,-19.8454 L-27.9837,-19.8454 C-46.9682,2.33309 -58.5225,31.7313 -57.5416,61.5058 L-57.5416,61.5058 C-57.4882,61.4975 -57.5149,61.5017 -57.5416,61.5058 L-57.5416,64.7357 C-50.6885,63.6923 -43.8985,62.2341 -37.2261,60.3612 Z M-38.2656,57.337 C-43.5398,58.8111 -48.8889,60.0213 -54.2847,60.9676 L-54.2847,60.9676 C-55.2044,33.05 -44.8233,5.81349 -27.504,-15.4402 C-26.1797,-4.50961 -23.8683,6.30626 -20.5258,16.8428 L-20.5258,16.8428 C-15.0164,31.5849 -23.8053,51.7125 -38.2656,57.337 L-38.2656,57.337 Z " fill="#000000" fill-opacity="1.00" stroke-width="3.28" stroke="#000000" stroke-linecap="round" stroke-linejoin="round" />		</g>	</svg>