<?xml version="1.0" encoding="utf-8" ?>	<!-- Generator: Assembly 2.4 - http://assemblyapp.co -->	<svg version="1.1" xmlns="http://www.w3.org/2000/svg" xmlns:xlink="http://www.w3.org/1999/xlink" width="4096.00" height="4096.00" viewBox="0 0 4096.0 4096.0">		<g id="document" transform="scale(13.653333333333334 13.653333333333334) translate(150.0 150.0)">			<g>				<path d="M37.2098,-52.77 L37.2098,-52.77 C21.1125,-46.5087 11.2235,-24.9432 17.3408,-8.57436 L17.3408,-8.57436 C20.9804,2.82568 23.389,14.5632 24.6244,26.4209 C5.15931,48.6524 -28.011,63.9121 -57.5504,66.1687 L-57.5504,66.1687 L-57.5504,69.615 L27.7142,69.615 C29.1042,53.3079 29.2127,40.3083 27.9675,27.4367 L27.9675,27.4367 C46.952,5.25819 58.5062,-24.14 57.5253,-53.9145 L57.5253,-53.9145 C57.472,-53.9062 57.4986,-53.9104 57.5253,-53.9145 L57.5253,-57.1444 C50.6723,-56.101 43.8823,-54.6428 37.2098,-52.77 Z M54.2685,-53.3763 L54.2685,-53.3763 Z " fill="#000000" fill-opacity="1.00" stroke-width="3.28" stroke="#000000" stroke-linecap="round" stroke-linejoin="round" />				<path d="M-37.2098,52.77 L-37.2098,52.77 C-21.1125,46.5087 -11.2235,24.9432 -17.3409,8.57435 L-17.3409,8.57435 C-20.9804,-2.82569 -23.389,-14.5632 -24.6244,-26.4209 C-5.15935,-48.6524 28.0109,-63.9121 57.5504,-66.1687 L57.5504,-66.1687 L57.5504,-69.615 L-27.7143,-69.615 C-29.1042,-53.3079 -29.2128,-40.3083 -27.9675,-27.4367 L-27.9675,-27.4367 C-46.952,-5.25819 -58.5062,24.14 -57.5253,53.9146 L-57.5253,53.9146 C-57.4719,53.9063 -57.4986,53.9104 -57.5253,53.9146 L-57.5253,57.1444 C-50.6723,56.101 -43.8823,54.6428 -37.2098,52.77 Z " fill="#000000" fill-opacity="1.00" stroke-width="3.28" stroke="#000000" stroke-linecap="round" stroke-linejoin="round" />			</g>		</g>	</svg>