<?xml version="1.0" encoding="utf-8" ?>	<!-- Generator: Assembly 2.4 - http://assemblyapp.co -->	<svg version="1.1" xmlns="http://www.w3.org/2000/svg" xmlns:xlink="http://www.w3.org/1999/xlink" width="4096.00" height="4096.00" viewBox="0 0 4096.0 4096.0">		<g id="document" transform="scale(13.653333333333334 13.653333333333334) translate(150.0 150.0)">			<g>				<path d="M-47.8051,64.9534 L-47.8051,64.9534 C-44.117,51.6956 -53.1555,35.0943 -66.5179,31.1848 L-66.5179,31.1848 C-75.5278,28.066 -84.1655,24.0007 -92.32,19.1297 C-97.2131,-3.89868 -91.1175,-32.3432 -78.4591,-52.2654 L-78.4591,-52.2654 L-80.6577,-53.9102 L-121.351,0.486077 C-111.611,9.15554 -103.37,15.429 -94.5635,20.7777 L-94.5635,20.7777 C-89.4749,43.4741 -76.2341,64.8759 -56.7707,78.4604 L-56.7707,78.4604 C-56.7505,78.4223 -56.7606,78.4414 -56.7707,78.4604 L-54.7101,80.0019 C-52.1051,75.1318 -49.7948,70.1041 -47.8051,64.9534 Z M-50.2306,64.1733 C-51.8074,68.2416 -53.5882,72.2317 -55.5597,76.1257 L-55.5597,76.1257 C-73.8092,63.3885 -86.2308,43.7668 -91.5242,22.574 C-83.9188,26.9459 -75.9154,30.6333 -67.5982,33.5296 L-67.5982,33.5296 C-55.5638,37.0505 -46.9175,52.2637 -50.2306,64.1733 L-50.2306,64.1733 Z M-95.2774,17.3145 C-103.244,12.2927 -110.722,6.49569 -117.604,0.0605169 L-90.3899,-36.3171 L-90.3899,-36.3171 C-97.2134,-19.481 -98.6607,-0.662006 -95.2774,17.3145 L-95.2774,17.3145 Z " fill="#000000" fill-opacity="1.00" stroke-width="3.28" stroke="#000000" stroke-linecap="round" stroke-linejoin="round" />				<path d="M-64.9534,-47.805 L-64.9534,-47.805 C-51.6955,-44.1169 -35.0943,-53.1554 -31.1848,-66.5178 L-31.1848,-66.5178 C-28.066,-75.5277 -24.0007,-84.1653 -19.1297,-92.3198 C3.8987,-97.213 32.3432,-91.1173 52.2654,-78.4589 L52.2654,-78.4589 L53.9102,-80.6576 L-0.486054,-121.351 C-9.15551,-111.611 -15.429,-103.369 -20.7777,-94.5634 L-20.7777,-94.5634 C-43.4741,-89.4747 -64.8759,-76.2339 -78.4603,-56.7705 L-78.4603,-56.7705 C-78.4223,-56.7504 -78.4413,-56.7604 -78.4603,-56.7705 L-80.0018,-54.71 C-75.1318,-52.1049 -70.1041,-49.7946 -64.9534,-47.805 Z M-64.1732,-50.2304 C-68.2416,-51.8072 -72.2317,-53.588 -76.1257,-55.5596 L-76.1257,-55.5596 C-63.3885,-73.8091 -43.7667,-86.2306 -22.574,-91.524 C-26.9459,-83.9186 -30.6332,-75.9153 -33.5295,-67.598 L-33.5295,-67.598 C-37.0505,-55.5636 -52.2637,-46.9174 -64.1732,-50.2304 L-64.1732,-50.2304 Z M-17.3145,-95.2773 C-12.2927,-103.244 -6.49567,-110.722 -0.0604939,-117.604 L36.3171,-90.3897 L36.3171,-90.3897 C19.481,-97.2132 0.662029,-98.6606 -17.3145,-95.2773 L-17.3145,-95.2773 Z " fill="#000000" fill-opacity="1.00" stroke-width="3.28" stroke="#000000" stroke-linecap="round" stroke-linejoin="round" />				<path d="M47.8051,-64.9534 L47.8051,-64.9534 C44.117,-51.6956 53.1555,-35.0943 66.5179,-31.1848 L66.5179,-31.1848 C75.5278,-28.066 84.1655,-24.0007 92.32,-19.1297 C97.2131,3.89868 91.1175,32.3432 78.4591,52.2654 L78.4591,52.2654 L80.6577,53.9102 L121.351,-0.486077 C111.611,-9.15554 103.37,-15.429 94.5635,-20.7777 L94.5635,-20.7777 C89.4749,-43.4741 76.2341,-64.8759 56.7707,-78.4604 L56.7707,-78.4604 C56.7505,-78.4223 56.7606,-78.4414 56.7707,-78.4604 L54.7101,-80.0019 C52.1051,-75.1318 49.7948,-70.1041 47.8051,-64.9534 Z M50.2306,-64.1733 C51.8074,-68.2416 53.5882,-72.2317 55.5597,-76.1257 L55.5597,-76.1257 C73.8092,-63.3885 86.2308,-43.7668 91.5242,-22.574 C83.9188,-26.9459 75.9154,-30.6333 67.5982,-33.5296 L67.5982,-33.5296 C55.5638,-37.0505 46.9175,-52.2637 50.2306,-64.1733 L50.2306,-64.1733 Z M95.2774,-17.3145 C103.244,-12.2927 110.722,-6.49569 117.604,-0.0605169 L90.3899,36.3171 L90.3899,36.3171 C97.2134,19.481 98.6607,0.662006 95.2774,-17.3145 L95.2774,-17.3145 Z " fill="#000000" fill-opacity="1.00" stroke-width="3.28" stroke="#000000" stroke-linecap="round" stroke-linejoin="round" />				<path d="M64.9534,47.805 L64.9534,47.805 C51.6955,44.1169 35.0943,53.1554 31.1848,66.5178 L31.1848,66.5178 C28.066,75.5277 24.0007,84.1653 19.1297,92.3198 C-3.8987,97.213 -32.3432,91.1173 -52.2654,78.4589 L-52.2654,78.4589 L-53.9102,80.6576 L0.486054,121.351 C9.15551,111.611 15.429,103.369 20.7777,94.5634 L20.7777,94.5634 C43.4741,89.4747 64.8759,76.2339 78.4603,56.7705 L78.4603,56.7705 C78.4223,56.7504 78.4413,56.7604 78.4603,56.7705 L80.0018,54.71 C75.1318,52.1049 70.1041,49.7946 64.9534,47.805 Z M64.1732,50.2304 C68.2416,51.8072 72.2317,53.588 76.1257,55.5596 L76.1257,55.5596 C63.3885,73.8091 43.7667,86.2306 22.574,91.524 C26.9459,83.9186 30.6332,75.9153 33.5295,67.598 L33.5295,67.598 C37.0505,55.5636 52.2637,46.9174 64.1732,50.2304 L64.1732,50.2304 Z M17.3145,95.2773 C12.2927,103.244 6.49567,110.722 0.0604939,117.604 L-36.3171,90.3897 L-36.3171,90.3897 C-19.481,97.2132 -0.662029,98.6606 17.3145,95.2773 L17.3145,95.2773 Z " fill="#000000" fill-opacity="1.00" stroke-width="3.28" stroke="#000000" stroke-linecap="round" stroke-linejoin="round" />			</g>		</g>	</svg>